# xmcd
#
# Track frame offsets: 
#        183
#        15183
#        28493
#        40983
#        53528
#        67370
#        79893
#        94070
#        109158
#        123283
#        137188
#        148233
#        160300
#        171823
#        182208
#        193333
#        206830
#        222495
#        233780
#        244058
#        255583
#
# Disc length: 3562 seconds
#
# Revision: 4
# Processed by: cddbd v1.4PL0 Copyright (c) Steve Scherf et al.
# Submitted via: ExactAudioCopy v0.90b2
#
DISCID=410de815
DTITLE=Various Artist - The Essential History Of Acoustic Blues
DYEAR=1990
DGENRE=Blues
TTITLE0=Mississippi John Hurt - Frankie
TTITLE1=Mississippi John Hurt - Stack O' Lee Blues
TTITLE2=Mississippi John Hurt - Candy Man Blues
TTITLE3=Blind Lemon Jefferson - Jack O'Diamonds
TTITLE4=Blind Lemon Jefferson - Hangman's Blues
TTITLE5=Blind Lemon Jefferson - Low Down Mojo Blues
TTITLE6=Blind Willie McTell - Atlanta Strut
TTITLE7=Blind Willie McTell - Travelin' Blues
TTITLE8=Blind Willie McTell - Death Cell Blues
TTITLE9=Leadbelly - The Gallows Pole
TTITLE10=Leadbelly - Good Morning Blues
TTITLE11=Leadbelly - Good Night Irene
TTITLE12=Robert Johnson - Crossroads Blues
TTITLE13=Robert Johnson - Little Queen Of Spades
TTITLE14=Robert Johnson - Love In Vain
TTITLE15=Woody Guthrie - House Of The Rising Sun
TTITLE16=Woody Guthrie - Mean Talking Blues
TTITLE17=Woody Guthrie - Little Black Train
TTITLE18=John Lee Hooker - Dimples
TTITLE19=John Lee Hooker - Boom Boom
TTITLE20=John Lee Hooker - Boogie Chillun
EXTD=
EXTT0=
EXTT1=
EXTT2=
EXTT3=
EXTT4=
EXTT5=
EXTT6=
EXTT7=
EXTT8=
EXTT9=
EXTT10=
EXTT11=
EXTT12=
EXTT13=
EXTT14=
EXTT15=
EXTT16=
EXTT17=
EXTT18=
EXTT19=
EXTT20=
PLAYORDER=
